<mxfile host="app.diagrams.net" modified="2024-04-22T11:35:33.864Z" agent="Mozilla/5.0 (Windows NT 10.0; Win64; x64) AppleWebKit/537.36 (KHTML, like Gecko) Chrome/120.0.0.0 Safari/537.36" version="24.2.7" etag="yKGK1OrB1K_ZEhqEobb5" type="github">
  <diagram name="第 1 页" id="pytXW0pH3ZZm6s-A68JL">
    <mxGraphModel>
      <root>
        <mxCell id="0" />
        <mxCell id="1" parent="0" />
      </root>
    </mxGraphModel>
  </diagram>
</mxfile>
